<svg viewBox="0 0 512 512" xml:space="preserve" xmlns="http://www.w3.org/2000/svg"><defs><linearGradient id="a"><stop offset="0" stop-color="#ffffff" stop-opacity=".43727598" class="stop-color-ffffff"></stop><stop offset="1" stop-color="#ffffff" stop-opacity="0" class="stop-color-ffffff"></stop></linearGradient></defs><g fill="#8b8b8b" fill-opacity="1" stroke="none" class="fill-282828"><rect height="512" rx="64" ry="64" width="512" fill="#8b8b8b" fill-opacity="1" fill-rule="nonzero" stroke="none" class="fill-282828"></rect><g fill="#8b8b8b" fill-opacity="1" stroke="none" class="fill-282828"><g fill="#8b8b8b" fill-opacity="1" stroke="none" class="fill-282828"><path d="M355.844 380.406c-.07.04-.081.062-.063.031-.679 1.144-.696 2.653-1 4a.498.498 0 0 1 0 .032c-.005.02.005.043 0 .062-.147 1.446-.624 2.921-.281 4.313a.498.498 0 0 1 .031.093c.003.01-.003.022 0 .032.005.008-.005.023 0 .03.006.01.026-.007.031 0 .074.101.163.177.22.188.04.008.11.004.25-.093.15-.106.236-.317.28-.594a.498.498 0 0 1 .063-.094.498.498 0 0 1 0-.031.498.498 0 0 1 .031-.094.498.498 0 0 1 .031-.031c.599-2.387 1.004-4.892.844-7.344a.614.614 0 0 0-.156-.344.98.98 0 0 0-.156-.156c-.02-.013.007-.004-.063 0a.498.498 0 0 1-.031 0c-.026.003-.016 0-.031 0z" transform="translate(-5331.65 -6029.19) scale(15.99685)" fill="#8b8b8b" fill-opacity="1" stroke="none" class="fill-282828"></path><path d="M361.844 381.844c-1.037.503-1.567 1.705-2.281 2.687a.467.467 0 0 1-.032.094.467.467 0 0 1-.03.062c-.907 1.606-2.062 3.208-2.188 5.063v.031c.013.28.174.432.343.469.167.036.475-.06.594-.25a.467.467 0 0 1 .031-.031.467.467 0 0 1 0-.031.467.467 0 0 1 0-.032c1.646-2.261 2.884-4.925 3.907-7.531a.467.467 0 0 1 0-.031c.07-.171.094-.215.03-.344-.018-.038-.212-.169-.312-.156-.016.007-.046-.008-.062 0z" transform="translate(-5339.506 -6033.475) scale(15.99685)" fill="#8b8b8b" fill-opacity="1" stroke="none" class="fill-282828"></path></g><path d="M345.67 382.277c-.167.032-.416.181-.594.25-.628.239-.975.777-1.125 1.407-.153.643-.102 1.36 0 2.093.102.732.248 1.487.406 2.063.137.498.234.74.282.906v.125c0 .055-.027.05-.063.094-.02.01.02.062 0 .062a.267.267 0 0 1-.156.063c-.111.007-.198-.034-.313-.063-.078-.018-.18-.08-.156-.062-.036-.022-.101-.024-.125-.063 0 .015.022.015 0-.03-.025-.048-.054-.167-.094-.25-.089-.19-.159-.41-.28-.688a24.97 24.97 0 0 0-.907-1.875c-.35-.642-.762-1.224-1.219-1.625-.228-.2-.51-.402-.781-.47-.262-.065-.573-.01-.844.126-.7.388-1.096 1.024-1.25 1.687-.154.674-.081 1.45.031 2.125.115.675.292 1.231.407 1.688.049.192.108.372.125.469 0 .095-.04.344-.063.437-.118.41-.405 1.094-.406 1.094 0 0-5.453 14.483 6.25 13.469.096-.007.315-.063.406-.063a36.535 36.535 0 0 0 6.406-1.937c.38-.182.878-.363 1.438-.625 1.119-.525 2.524-1.196 3.875-1.938 1.35-.742 2.604-1.533 3.562-2.375.96-.843 1.66-1.767 1.532-2.687-.204-1.484-1.19-2.586-2.5-3.438-1.317-.855-2.958-1.444-4.594-1.875-1.636-.43-3.224-.78-4.438-.969-.606-.094-1.175-.122-1.53-.187-.106-.018-.163-.044-.22-.063-.03-.004-.033-.013-.062-.03-.036-.023-.103-.025-.125-.063-.02-.037 0-.084 0-.125V387.965c-.02-.748-.064-1.736-.219-2.656-.156-.925-.397-1.81-.906-2.407a1.772 1.772 0 0 0-1.25-.625 1.706 1.706 0 0 0-.5 0z" transform="translate(-5338.792 -6028.476) scale(15.99685)" fill="#8b8b8b" fill-opacity="1" stroke="none" class="fill-282828"></path></g></g><g fill="#ffffff" fill-opacity="1" class="fill-ffffff"><path d="M852.395 659.912c0 10.145-8.224 18.369-18.368 18.369-10.145 0-18.368-8.224-18.368-18.369 0-10.144 8.224-18.368 18.368-18.368 10.144 0 18.368 8.224 18.368 18.368z" transform="matrix(2.46424 0 0 2.46424 -1692.507 -1524.918)" fill="#ffffff" fill-opacity="1" fill-rule="nonzero" stroke="none" class="fill-ffffff"></path><path d="M707.681 811.286c-.104-.275-.174-7.024-.154-14.724l.036-14.29h15.365c-.142-20.473.143-41.237 0-61.71l-8.365-.056-8-.056-.277-14.693-.277-14.694h16.919v-8.75c0-20.493 12.229-32.887 33.404-38.192 12.976-2.649 20.01-1.859 33.23-1.558l.276 15.75.275 15.75h-8.775c-13.539 0-17.496 3.276-17.529 12.748v4.25h88.254v91.21h14.748s-.044-.089 0 2.04c.232 11.337-.109 13.412 0 26.975-.326.325-16.349-.05-35.297 0h-34.451V782.27h15v-61.806c-13.94.163-35.815.081-48.254 0-.95 23.367-.552 33.9 0 61.806 5.584.212 11.169-.184 16.754 0l.275 14.791.275 14.224h-36.62c-20.142 0-36.707.275-36.812 0z" transform="matrix(2.32442 0 0 2.32442 -1572.046 -1430.084)" fill="#ffffff" fill-opacity="1" class="fill-ffffff"></path></g></svg>
